<?xml version="1.0" encoding="UTF-8" standalone="no"?>
<!DOCTYPE svg PUBLIC "-//W3C//DTD SVG 1.1//EN"
 "http://www.w3.org/Graphics/SVG/1.1/DTD/svg11.dtd">
<!-- Generated by graphviz version 2.43.0 (0)
 -->
<!-- Title: include/Particule.hpp Pages: 1 -->
<svg width="163pt" height="137pt"
 viewBox="0.00 0.00 163.00 137.00" xmlns="http://www.w3.org/2000/svg" xmlns:xlink="http://www.w3.org/1999/xlink">
<g id="graph0" class="graph" transform="scale(1 1) rotate(0) translate(4 133)">
<title>include/Particule.hpp</title>
<!-- Node1 -->
<g id="Node000001" class="node">
<title>Node1</title>
<g id="a_Node000001"><a xlink:title="Définition de la classe Particule représentant une particule physique.">
<polygon fill="#999999" stroke="#666666" points="155,-129 37,-129 37,-110 155,-110 155,-129"/>
<text text-anchor="middle" x="96" y="-117" font-family="Helvetica,sans-Serif" font-size="10.00">include/Particule.hpp</text>
</a>
</g>
</g>
<!-- Node2 -->
<g id="Node000002" class="node">
<title>Node2</title>
<g id="a_Node000002"><a xlink:href="Cellule_8hpp.html" target="_top" xlink:title="Définition de la classe Cellule représentant une cellule du maillage spatial.">
<polygon fill="white" stroke="#666666" points="110,-74 0,-74 0,-55 110,-55 110,-74"/>
<text text-anchor="middle" x="55" y="-62" font-family="Helvetica,sans-Serif" font-size="10.00">include/Cellule.hpp</text>
</a>
</g>
</g>
<!-- Node1&#45;&gt;Node2 -->
<g id="edge1_Node000001_Node000002" class="edge">
<title>Node1&#45;&gt;Node2</title>
<g id="a_edge1_Node000001_Node000002"><a xlink:title=" ">
<path fill="none" stroke="#63b8ff" d="M82.98,-101.67C75.88,-92.5 67.4,-81.52 61.64,-74.09"/>
<polygon fill="#63b8ff" stroke="#63b8ff" points="80.34,-103.98 89.23,-109.75 85.88,-99.7 80.34,-103.98"/>
</a>
</g>
</g>
<!-- Node3 -->
<g id="Node000003" class="node">
<title>Node3</title>
<g id="a_Node000003"><a xlink:href="Univers_8hpp.html" target="_top" xlink:title="Définition de la classe Univers représentant le domaine de simulation.">
<polygon fill="white" stroke="#666666" points="152.5,-19 39.5,-19 39.5,0 152.5,0 152.5,-19"/>
<text text-anchor="middle" x="96" y="-7" font-family="Helvetica,sans-Serif" font-size="10.00">include/Univers.hpp</text>
</a>
</g>
</g>
<!-- Node1&#45;&gt;Node3 -->
<g id="edge3_Node000001_Node000003" class="edge">
<title>Node1&#45;&gt;Node3</title>
<g id="a_edge3_Node000001_Node000003"><a xlink:title=" ">
<path fill="none" stroke="#63b8ff" d="M107.42,-101.15C111.98,-93.22 116.69,-83.49 119,-74 123.88,-53.95 111.18,-31.45 102.76,-19.35"/>
<polygon fill="#63b8ff" stroke="#63b8ff" points="104.36,-99.45 102.1,-109.8 110.32,-103.11 104.36,-99.45"/>
</a>
</g>
</g>
<!-- Node2&#45;&gt;Node3 -->
<g id="edge2_Node000002_Node000003" class="edge">
<title>Node2&#45;&gt;Node3</title>
<g id="a_edge2_Node000002_Node000003"><a xlink:title=" ">
<path fill="none" stroke="#63b8ff" d="M68.02,-46.67C75.12,-37.5 83.6,-26.52 89.36,-19.09"/>
<polygon fill="#63b8ff" stroke="#63b8ff" points="65.12,-44.7 61.77,-54.75 70.66,-48.98 65.12,-44.7"/>
</a>
</g>
</g>
</g>
</svg>
