<?xml version="1.0" encoding="UTF-8" standalone="no"?>
<!DOCTYPE svg PUBLIC "-//W3C//DTD SVG 1.1//EN"
 "http://www.w3.org/Graphics/SVG/1.1/DTD/svg11.dtd">
<!-- Generated by graphviz version 2.43.0 (0)
 -->
<!-- Title: include/Univers.hpp Pages: 1 -->
<svg width="304pt" height="192pt"
 viewBox="0.00 0.00 303.88 192.00" xmlns="http://www.w3.org/2000/svg" xmlns:xlink="http://www.w3.org/1999/xlink">
<g id="graph0" class="graph" transform="scale(1 1) rotate(0) translate(4 188)">
<title>include/Univers.hpp</title>
<!-- Node1 -->
<g id="Node000001" class="node">
<title>Node1</title>
<g id="a_Node000001"><a xlink:title="Définition de la classe Univers représentant le domaine de simulation.">
<polygon fill="#999999" stroke="#666666" points="206.88,-184 93.88,-184 93.88,-165 206.88,-165 206.88,-184"/>
<text text-anchor="middle" x="150.38" y="-172" font-family="Helvetica,sans-Serif" font-size="10.00">include/Univers.hpp</text>
</a>
</g>
</g>
<!-- Node2 -->
<g id="Node000002" class="node">
<title>Node2</title>
<g id="a_Node000002"><a xlink:href="Vecteur_8hpp.html" target="_top" xlink:title="Définition de la classe Vecteur.">
<polygon fill="white" stroke="#666666" points="88.38,-19 14.38,-19 14.38,0 88.38,0 88.38,-19"/>
<text text-anchor="middle" x="51.38" y="-7" font-family="Helvetica,sans-Serif" font-size="10.00">Vecteur.hpp</text>
</a>
</g>
</g>
<!-- Node1&#45;&gt;Node2 -->
<g id="edge1_Node000001_Node000002" class="edge">
<title>Node1&#45;&gt;Node2</title>
<g id="a_edge1_Node000001_Node000002"><a xlink:title=" ">
<path fill="none" stroke="#63b8ff" d="M121.6,-164.93C84.81,-152.11 23.34,-123.96 2.38,-74 -5.55,-55.08 11.87,-36.91 28.1,-24.89"/>
<polygon fill="#63b8ff" stroke="#63b8ff" points="30.1,-27.76 36.33,-19.19 26.12,-22 30.1,-27.76"/>
</a>
</g>
</g>
<!-- Node3 -->
<g id="Node000003" class="node">
<title>Node3</title>
<g id="a_Node000003"><a xlink:href="Particule_8hpp.html" target="_top" xlink:title="Définition de la classe Particule représentant une particule physique.">
<polygon fill="white" stroke="#666666" points="91.38,-74 11.38,-74 11.38,-55 91.38,-55 91.38,-74"/>
<text text-anchor="middle" x="51.38" y="-62" font-family="Helvetica,sans-Serif" font-size="10.00">Particule.hpp</text>
</a>
</g>
</g>
<!-- Node1&#45;&gt;Node3 -->
<g id="edge2_Node000001_Node000003" class="edge">
<title>Node1&#45;&gt;Node3</title>
<g id="a_edge2_Node000001_Node000003"><a xlink:title=" ">
<path fill="none" stroke="#63b8ff" d="M126.48,-164.94C109.51,-157.75 87.34,-145.91 73.38,-129 62.82,-116.21 57.21,-98.04 54.3,-84.41"/>
<polygon fill="#63b8ff" stroke="#63b8ff" points="57.68,-83.46 52.45,-74.25 50.8,-84.71 57.68,-83.46"/>
</a>
</g>
</g>
<!-- Node4 -->
<g id="Node000004" class="node">
<title>Node4</title>
<g id="a_Node000004"><a xlink:href="Cellule_8hpp.html" target="_top" xlink:title="Définition de la classe Cellule représentant une cellule du maillage spatial.">
<polygon fill="white" stroke="#666666" points="153.88,-129 82.88,-129 82.88,-110 153.88,-110 153.88,-129"/>
<text text-anchor="middle" x="118.38" y="-117" font-family="Helvetica,sans-Serif" font-size="10.00">Cellule.hpp</text>
</a>
</g>
</g>
<!-- Node1&#45;&gt;Node4 -->
<g id="edge4_Node000001_Node000004" class="edge">
<title>Node1&#45;&gt;Node4</title>
<g id="a_edge4_Node000001_Node000004"><a xlink:title=" ">
<path fill="none" stroke="#63b8ff" d="M145.1,-164.75C140.67,-157.42 134.22,-146.73 128.76,-137.7"/>
<polygon fill="#63b8ff" stroke="#63b8ff" points="131.73,-135.84 123.57,-129.09 125.74,-139.46 131.73,-135.84"/>
</a>
</g>
</g>
<!-- Node5 -->
<g id="Node000005" class="node">
<title>Node5</title>
<g id="a_Node000005"><a xlink:title=" ">
<polygon fill="#e0e0e0" stroke="#999999" points="194.88,-74 147.88,-74 147.88,-55 194.88,-55 194.88,-74"/>
<text text-anchor="middle" x="171.38" y="-62" font-family="Helvetica,sans-Serif" font-size="10.00">vector</text>
</a>
</g>
</g>
<!-- Node1&#45;&gt;Node5 -->
<g id="edge9_Node000001_Node000005" class="edge">
<title>Node1&#45;&gt;Node5</title>
<g id="a_edge9_Node000001_Node000005"><a xlink:title=" ">
<path fill="none" stroke="#63b8ff" d="M153.1,-164.71C155.77,-155.79 159.81,-141.54 162.38,-129 165.43,-114.13 167.78,-97.1 169.32,-84.42"/>
<polygon fill="#63b8ff" stroke="#63b8ff" points="172.83,-84.52 170.49,-74.19 165.87,-83.72 172.83,-84.52"/>
</a>
</g>
</g>
<!-- Node6 -->
<g id="Node000006" class="node">
<title>Node6</title>
<g id="a_Node000006"><a xlink:title=" ">
<polygon fill="#e0e0e0" stroke="#999999" points="255.38,-74 213.38,-74 213.38,-55 255.38,-55 255.38,-74"/>
<text text-anchor="middle" x="234.38" y="-62" font-family="Helvetica,sans-Serif" font-size="10.00">array</text>
</a>
</g>
</g>
<!-- Node1&#45;&gt;Node6 -->
<g id="edge10_Node000001_Node000006" class="edge">
<title>Node1&#45;&gt;Node6</title>
<g id="a_edge10_Node000001_Node000006"><a xlink:title=" ">
<path fill="none" stroke="#63b8ff" d="M157.26,-164.66C171.29,-146.61 203.44,-105.28 221.49,-82.08"/>
<polygon fill="#63b8ff" stroke="#63b8ff" points="224.27,-84.2 227.65,-74.16 218.75,-79.9 224.27,-84.2"/>
</a>
</g>
</g>
<!-- Node7 -->
<g id="Node000007" class="node">
<title>Node7</title>
<g id="a_Node000007"><a xlink:title=" ">
<polygon fill="#e0e0e0" stroke="#999999" points="295.88,-129 248.88,-129 248.88,-110 295.88,-110 295.88,-129"/>
<text text-anchor="middle" x="272.38" y="-117" font-family="Helvetica,sans-Serif" font-size="10.00">cmath</text>
</a>
</g>
</g>
<!-- Node1&#45;&gt;Node7 -->
<g id="edge11_Node000001_Node000007" class="edge">
<title>Node1&#45;&gt;Node7</title>
<g id="a_edge11_Node000001_Node000007"><a xlink:title=" ">
<path fill="none" stroke="#63b8ff" d="M169.98,-164.98C189.7,-156.42 220.34,-143.11 242.97,-133.28"/>
<polygon fill="#63b8ff" stroke="#63b8ff" points="244.65,-136.37 252.42,-129.17 241.86,-129.94 244.65,-136.37"/>
</a>
</g>
</g>
<!-- Node3&#45;&gt;Node2 -->
<g id="edge3_Node000003_Node000002" class="edge">
<title>Node3&#45;&gt;Node2</title>
<g id="a_edge3_Node000003_Node000002"><a xlink:title=" ">
<path fill="none" stroke="#63b8ff" d="M51.38,-54.75C51.38,-47.8 51.38,-37.85 51.38,-29.13"/>
<polygon fill="#63b8ff" stroke="#63b8ff" points="54.88,-29.09 51.38,-19.09 47.88,-29.09 54.88,-29.09"/>
</a>
</g>
</g>
<!-- Node4&#45;&gt;Node2 -->
<g id="edge5_Node000004_Node000002" class="edge">
<title>Node4&#45;&gt;Node2</title>
<g id="a_edge5_Node000004_Node000002"><a xlink:title=" ">
<path fill="none" stroke="#63b8ff" d="M117.44,-109.67C115.73,-96.8 111.25,-72.53 100.38,-55 93.27,-43.52 82.35,-33.2 72.63,-25.39"/>
<polygon fill="#63b8ff" stroke="#63b8ff" points="74.59,-22.49 64.52,-19.21 70.35,-28.06 74.59,-22.49"/>
</a>
</g>
</g>
<!-- Node4&#45;&gt;Node3 -->
<g id="edge6_Node000004_Node000003" class="edge">
<title>Node4&#45;&gt;Node3</title>
<g id="a_edge6_Node000004_Node000003"><a xlink:title=" ">
<path fill="none" stroke="#63b8ff" d="M107.62,-109.98C97.62,-102.07 82.5,-90.11 70.45,-80.58"/>
<polygon fill="#63b8ff" stroke="#63b8ff" points="72.36,-77.63 62.34,-74.17 68.01,-83.12 72.36,-77.63"/>
</a>
</g>
</g>
<!-- Node4&#45;&gt;Node5 -->
<g id="edge7_Node000004_Node000005" class="edge">
<title>Node4&#45;&gt;Node5</title>
<g id="a_edge7_Node000004_Node000005"><a xlink:title=" ">
<path fill="none" stroke="#63b8ff" d="M127.13,-109.75C134.85,-102.03 146.29,-90.6 155.6,-81.28"/>
<polygon fill="#63b8ff" stroke="#63b8ff" points="158.2,-83.64 162.79,-74.09 153.25,-78.69 158.2,-83.64"/>
</a>
</g>
</g>
<!-- Node4&#45;&gt;Node6 -->
<g id="edge8_Node000004_Node000006" class="edge">
<title>Node4&#45;&gt;Node6</title>
<g id="a_edge8_Node000004_Node000006"><a xlink:title=" ">
<path fill="none" stroke="#63b8ff" d="M137.02,-109.98C155.68,-101.46 184.63,-88.23 206.12,-78.41"/>
<polygon fill="#63b8ff" stroke="#63b8ff" points="207.77,-81.51 215.41,-74.17 204.86,-75.14 207.77,-81.51"/>
</a>
</g>
</g>
</g>
</svg>
