<?xml version="1.0" encoding="UTF-8" standalone="no"?>
<!DOCTYPE svg PUBLIC "-//W3C//DTD SVG 1.1//EN"
 "http://www.w3.org/Graphics/SVG/1.1/DTD/svg11.dtd">
<!-- Generated by graphviz version 2.43.0 (0)
 -->
<!-- Title: include/Vecteur.hpp Pages: 1 -->
<svg width="210pt" height="192pt"
 viewBox="0.00 0.00 210.00 192.00" xmlns="http://www.w3.org/2000/svg" xmlns:xlink="http://www.w3.org/1999/xlink">
<g id="graph0" class="graph" transform="scale(1 1) rotate(0) translate(4 188)">
<title>include/Vecteur.hpp</title>
<!-- Node1 -->
<g id="Node000001" class="node">
<title>Node1</title>
<g id="a_Node000001"><a xlink:title="Définition de la classe Vecteur.">
<polygon fill="#999999" stroke="#666666" points="112,-184 0,-184 0,-165 112,-165 112,-184"/>
<text text-anchor="middle" x="56" y="-172" font-family="Helvetica,sans-Serif" font-size="10.00">include/Vecteur.hpp</text>
</a>
</g>
</g>
<!-- Node2 -->
<g id="Node000002" class="node">
<title>Node2</title>
<g id="a_Node000002"><a xlink:href="Cellule_8hpp.html" target="_top" xlink:title="Définition de la classe Cellule représentant une cellule du maillage spatial.">
<polygon fill="white" stroke="#666666" points="136,-74 26,-74 26,-55 136,-55 136,-74"/>
<text text-anchor="middle" x="81" y="-62" font-family="Helvetica,sans-Serif" font-size="10.00">include/Cellule.hpp</text>
</a>
</g>
</g>
<!-- Node1&#45;&gt;Node2 -->
<g id="edge1_Node000001_Node000002" class="edge">
<title>Node1&#45;&gt;Node2</title>
<g id="a_edge1_Node000001_Node000002"><a xlink:title=" ">
<path fill="none" stroke="#63b8ff" d="M60.33,-154.8C65.79,-131.2 74.96,-91.58 79,-74.16"/>
<polygon fill="#63b8ff" stroke="#63b8ff" points="56.89,-154.13 58.05,-164.66 63.71,-155.71 56.89,-154.13"/>
</a>
</g>
</g>
<!-- Node3 -->
<g id="Node000003" class="node">
<title>Node3</title>
<g id="a_Node000003"><a xlink:href="Univers_8hpp.html" target="_top" xlink:title="Définition de la classe Univers représentant le domaine de simulation.">
<polygon fill="white" stroke="#666666" points="137.5,-19 24.5,-19 24.5,0 137.5,0 137.5,-19"/>
<text text-anchor="middle" x="81" y="-7" font-family="Helvetica,sans-Serif" font-size="10.00">include/Univers.hpp</text>
</a>
</g>
</g>
<!-- Node1&#45;&gt;Node3 -->
<g id="edge6_Node000001_Node000003" class="edge">
<title>Node1&#45;&gt;Node3</title>
<g id="a_edge6_Node000001_Node000003"><a xlink:title=" ">
<path fill="none" stroke="#63b8ff" d="M42.44,-156.81C25.04,-133.22 -0.88,-89.21 17,-55 25.84,-38.09 44.36,-26.31 59.21,-19.13"/>
<polygon fill="#63b8ff" stroke="#63b8ff" points="39.71,-159 48.58,-164.78 45.25,-154.73 39.71,-159"/>
</a>
</g>
</g>
<!-- Node4 -->
<g id="Node000004" class="node">
<title>Node4</title>
<g id="a_Node000004"><a xlink:href="Particule_8hpp.html" target="_top" xlink:title="Définition de la classe Particule représentant une particule physique.">
<polygon fill="white" stroke="#666666" points="202,-129 84,-129 84,-110 202,-110 202,-129"/>
<text text-anchor="middle" x="143" y="-117" font-family="Helvetica,sans-Serif" font-size="10.00">include/Particule.hpp</text>
</a>
</g>
</g>
<!-- Node1&#45;&gt;Node4 -->
<g id="edge3_Node000001_Node000004" class="edge">
<title>Node1&#45;&gt;Node4</title>
<g id="a_edge3_Node000001_Node000004"><a xlink:title=" ">
<path fill="none" stroke="#63b8ff" d="M78.66,-159.7C94.51,-150.04 115.19,-137.44 128.77,-129.17"/>
<polygon fill="#63b8ff" stroke="#63b8ff" points="76.7,-156.79 69.98,-164.98 80.34,-162.77 76.7,-156.79"/>
</a>
</g>
</g>
<!-- Node2&#45;&gt;Node3 -->
<g id="edge2_Node000002_Node000003" class="edge">
<title>Node2&#45;&gt;Node3</title>
<g id="a_edge2_Node000002_Node000003"><a xlink:title=" ">
<path fill="none" stroke="#63b8ff" d="M81,-44.66C81,-35.93 81,-25.99 81,-19.09"/>
<polygon fill="#63b8ff" stroke="#63b8ff" points="77.5,-44.75 81,-54.75 84.5,-44.75 77.5,-44.75"/>
</a>
</g>
</g>
<!-- Node4&#45;&gt;Node2 -->
<g id="edge4_Node000004_Node000002" class="edge">
<title>Node4&#45;&gt;Node2</title>
<g id="a_edge4_Node000004_Node000002"><a xlink:title=" ">
<path fill="none" stroke="#63b8ff" d="M125.25,-103.32C114.19,-93.87 100.37,-82.06 91.14,-74.17"/>
<polygon fill="#63b8ff" stroke="#63b8ff" points="123.16,-106.15 133.04,-109.98 127.71,-100.83 123.16,-106.15"/>
</a>
</g>
</g>
<!-- Node4&#45;&gt;Node3 -->
<g id="edge5_Node000004_Node000003" class="edge">
<title>Node4&#45;&gt;Node3</title>
<g id="a_edge5_Node000004_Node000003"><a xlink:title=" ">
<path fill="none" stroke="#63b8ff" d="M148.23,-99.81C150.87,-86.55 152.18,-68.75 145,-55 136.16,-38.09 117.64,-26.31 102.79,-19.13"/>
<polygon fill="#63b8ff" stroke="#63b8ff" points="144.79,-99.14 145.86,-109.69 151.6,-100.78 144.79,-99.14"/>
</a>
</g>
</g>
</g>
</svg>
