<?xml version="1.0" encoding="UTF-8" standalone="no"?>
<!DOCTYPE svg PUBLIC "-//W3C//DTD SVG 1.1//EN"
 "http://www.w3.org/Graphics/SVG/1.1/DTD/svg11.dtd">
<!-- Generated by graphviz version 2.43.0 (0)
 -->
<!-- Title: include/Univers.hpp Pages: 1 -->
<svg width="185pt" height="137pt"
 viewBox="0.00 0.00 184.50 137.00" xmlns="http://www.w3.org/2000/svg" xmlns:xlink="http://www.w3.org/1999/xlink">
<g id="graph0" class="graph" transform="scale(1 1) rotate(0) translate(4 133)">
<title>include/Univers.hpp</title>
<!-- Node1 -->
<g id="Node000001" class="node">
<title>Node1</title>
<g id="a_Node000001"><a xlink:title="Définition de la classe Univers représentant le domaine de simulation.">
<polygon fill="#999999" stroke="#666666" points="162,-129 49,-129 49,-110 162,-110 162,-129"/>
<text text-anchor="middle" x="105.5" y="-117" font-family="Helvetica,sans-Serif" font-size="10.00">include/Univers.hpp</text>
</a>
</g>
</g>
<!-- Node2 -->
<g id="Node000002" class="node">
<title>Node2</title>
<g id="a_Node000002"><a xlink:title=" ">
<polygon fill="#e0e0e0" stroke="#999999" points="47,-74 0,-74 0,-55 47,-55 47,-74"/>
<text text-anchor="middle" x="23.5" y="-62" font-family="Helvetica,sans-Serif" font-size="10.00">vector</text>
</a>
</g>
</g>
<!-- Node1&#45;&gt;Node2 -->
<g id="edge1_Node000001_Node000002" class="edge">
<title>Node1&#45;&gt;Node2</title>
<g id="a_edge1_Node000001_Node000002"><a xlink:title=" ">
<path fill="none" stroke="#63b8ff" d="M92.33,-109.98C79.73,-101.84 60.5,-89.41 45.56,-79.76"/>
<polygon fill="#63b8ff" stroke="#63b8ff" points="47.21,-76.66 36.91,-74.17 43.41,-82.54 47.21,-76.66"/>
</a>
</g>
</g>
<!-- Node3 -->
<g id="Node000003" class="node">
<title>Node3</title>
<g id="a_Node000003"><a xlink:href="Particule_8hpp.html" target="_top" xlink:title="Définition de la classe Particule représentant une particule physique.">
<polygon fill="white" stroke="#666666" points="145.5,-74 65.5,-74 65.5,-55 145.5,-55 145.5,-74"/>
<text text-anchor="middle" x="105.5" y="-62" font-family="Helvetica,sans-Serif" font-size="10.00">Particule.hpp</text>
</a>
</g>
</g>
<!-- Node1&#45;&gt;Node3 -->
<g id="edge2_Node000001_Node000003" class="edge">
<title>Node1&#45;&gt;Node3</title>
<g id="a_edge2_Node000001_Node000003"><a xlink:title=" ">
<path fill="none" stroke="#63b8ff" d="M105.5,-109.75C105.5,-102.8 105.5,-92.85 105.5,-84.13"/>
<polygon fill="#63b8ff" stroke="#63b8ff" points="109,-84.09 105.5,-74.09 102,-84.09 109,-84.09"/>
</a>
</g>
</g>
<!-- Node4 -->
<g id="Node000004" class="node">
<title>Node4</title>
<g id="a_Node000004"><a xlink:href="Vecteur_8hpp.html" target="_top" xlink:title="Définition de la classe Vecteur.">
<polygon fill="white" stroke="#666666" points="176.5,-19 102.5,-19 102.5,0 176.5,0 176.5,-19"/>
<text text-anchor="middle" x="139.5" y="-7" font-family="Helvetica,sans-Serif" font-size="10.00">Vecteur.hpp</text>
</a>
</g>
</g>
<!-- Node1&#45;&gt;Node4 -->
<g id="edge4_Node000001_Node000004" class="edge">
<title>Node1&#45;&gt;Node4</title>
<g id="a_edge4_Node000001_Node000004"><a xlink:title=" ">
<path fill="none" stroke="#63b8ff" d="M120.63,-109.73C132.31,-101.99 147.62,-89.55 154.5,-74 161.08,-59.14 155.57,-41 149.46,-27.92"/>
<polygon fill="#63b8ff" stroke="#63b8ff" points="152.57,-26.31 144.86,-19.04 146.36,-29.53 152.57,-26.31"/>
</a>
</g>
</g>
<!-- Node3&#45;&gt;Node4 -->
<g id="edge3_Node000003_Node000004" class="edge">
<title>Node3&#45;&gt;Node4</title>
<g id="a_edge3_Node000003_Node000004"><a xlink:title=" ">
<path fill="none" stroke="#63b8ff" d="M111.11,-54.75C115.82,-47.42 122.67,-36.73 128.47,-27.7"/>
<polygon fill="#63b8ff" stroke="#63b8ff" points="131.54,-29.4 133.99,-19.09 125.64,-25.62 131.54,-29.4"/>
</a>
</g>
</g>
</g>
</svg>
