<?xml version="1.0" encoding="UTF-8" standalone="no"?>
<!DOCTYPE svg PUBLIC "-//W3C//DTD SVG 1.1//EN"
 "http://www.w3.org/Graphics/SVG/1.1/DTD/svg11.dtd">
<!-- Generated by graphviz version 2.43.0 (0)
 -->
<!-- Title: include/Vecteur.hpp Pages: 1 -->
<svg width="167pt" height="137pt"
 viewBox="0.00 0.00 166.50 137.00" xmlns="http://www.w3.org/2000/svg" xmlns:xlink="http://www.w3.org/1999/xlink">
<g id="graph0" class="graph" transform="scale(1 1) rotate(0) translate(4 133)">
<title>include/Vecteur.hpp</title>
<!-- Node1 -->
<g id="Node000001" class="node">
<title>Node1</title>
<g id="a_Node000001"><a xlink:title="Définition de la classe Vecteur.">
<polygon fill="#999999" stroke="#666666" points="158,-129 46,-129 46,-110 158,-110 158,-129"/>
<text text-anchor="middle" x="102" y="-117" font-family="Helvetica,sans-Serif" font-size="10.00">include/Vecteur.hpp</text>
</a>
</g>
</g>
<!-- Node2 -->
<g id="Node000002" class="node">
<title>Node2</title>
<g id="a_Node000002"><a xlink:href="Particule_8hpp.html" target="_top" xlink:title="Définition de la classe Particule représentant une particule physique.">
<polygon fill="white" stroke="#666666" points="118,-74 0,-74 0,-55 118,-55 118,-74"/>
<text text-anchor="middle" x="59" y="-62" font-family="Helvetica,sans-Serif" font-size="10.00">include/Particule.hpp</text>
</a>
</g>
</g>
<!-- Node1&#45;&gt;Node2 -->
<g id="edge1_Node000001_Node000002" class="edge">
<title>Node1&#45;&gt;Node2</title>
<g id="a_edge1_Node000001_Node000002"><a xlink:title=" ">
<path fill="none" stroke="#63b8ff" d="M88.58,-101.96C81.09,-92.72 72.06,-81.6 65.97,-74.09"/>
<polygon fill="#63b8ff" stroke="#63b8ff" points="85.88,-104.19 94.9,-109.75 91.32,-99.78 85.88,-104.19"/>
</a>
</g>
</g>
<!-- Node3 -->
<g id="Node000003" class="node">
<title>Node3</title>
<g id="a_Node000003"><a xlink:href="Univers_8hpp.html" target="_top" xlink:title="Définition de la classe Univers représentant le domaine de simulation.">
<polygon fill="white" stroke="#666666" points="158.5,-19 45.5,-19 45.5,0 158.5,0 158.5,-19"/>
<text text-anchor="middle" x="102" y="-7" font-family="Helvetica,sans-Serif" font-size="10.00">include/Univers.hpp</text>
</a>
</g>
</g>
<!-- Node1&#45;&gt;Node3 -->
<g id="edge3_Node000001_Node000003" class="edge">
<title>Node1&#45;&gt;Node3</title>
<g id="a_edge3_Node000001_Node000003"><a xlink:title=" ">
<path fill="none" stroke="#63b8ff" d="M114.24,-101.54C119.25,-93.59 124.45,-83.74 127,-74 132.28,-53.83 118.48,-31.38 109.34,-19.32"/>
<polygon fill="#63b8ff" stroke="#63b8ff" points="111.31,-99.63 108.63,-109.88 117.11,-103.54 111.31,-99.63"/>
</a>
</g>
</g>
<!-- Node2&#45;&gt;Node3 -->
<g id="edge2_Node000002_Node000003" class="edge">
<title>Node2&#45;&gt;Node3</title>
<g id="a_edge2_Node000002_Node000003"><a xlink:title=" ">
<path fill="none" stroke="#63b8ff" d="M72.42,-46.96C79.91,-37.72 88.94,-26.6 95.03,-19.09"/>
<polygon fill="#63b8ff" stroke="#63b8ff" points="69.68,-44.78 66.1,-54.75 75.12,-49.19 69.68,-44.78"/>
</a>
</g>
</g>
</g>
</svg>
