<?xml version="1.0" encoding="UTF-8" standalone="no"?>
<!DOCTYPE svg PUBLIC "-//W3C//DTD SVG 1.1//EN"
 "http://www.w3.org/Graphics/SVG/1.1/DTD/svg11.dtd">
<!-- Generated by graphviz version 2.43.0 (0)
 -->
<!-- Title: include/Cellule.hpp Pages: 1 -->
<svg width="245pt" height="137pt"
 viewBox="0.00 0.00 245.00 137.00" xmlns="http://www.w3.org/2000/svg" xmlns:xlink="http://www.w3.org/1999/xlink">
<g id="graph0" class="graph" transform="scale(1 1) rotate(0) translate(4 133)">
<title>include/Cellule.hpp</title>
<!-- Node1 -->
<g id="Node000001" class="node">
<title>Node1</title>
<g id="a_Node000001"><a xlink:title="Définition de la classe Cellule représentant une cellule du maillage spatial.">
<polygon fill="#999999" stroke="#666666" points="167,-129 57,-129 57,-110 167,-110 167,-129"/>
<text text-anchor="middle" x="112" y="-117" font-family="Helvetica,sans-Serif" font-size="10.00">include/Cellule.hpp</text>
</a>
</g>
</g>
<!-- Node2 -->
<g id="Node000002" class="node">
<title>Node2</title>
<g id="a_Node000002"><a xlink:href="Vecteur_8hpp.html" target="_top" xlink:title="Définition de la classe Vecteur.">
<polygon fill="white" stroke="#666666" points="74,-19 0,-19 0,0 74,0 74,-19"/>
<text text-anchor="middle" x="37" y="-7" font-family="Helvetica,sans-Serif" font-size="10.00">Vecteur.hpp</text>
</a>
</g>
</g>
<!-- Node1&#45;&gt;Node2 -->
<g id="edge1_Node000001_Node000002" class="edge">
<title>Node1&#45;&gt;Node2</title>
<g id="a_edge1_Node000001_Node000002"><a xlink:title=" ">
<path fill="none" stroke="#63b8ff" d="M73.99,-109.85C54.88,-103.37 33.4,-92.36 22,-74 13.34,-60.06 19.28,-41.57 26.08,-28.14"/>
<polygon fill="#63b8ff" stroke="#63b8ff" points="29.14,-29.82 30.97,-19.39 23.03,-26.4 29.14,-29.82"/>
</a>
</g>
</g>
<!-- Node3 -->
<g id="Node000003" class="node">
<title>Node3</title>
<g id="a_Node000003"><a xlink:href="Particule_8hpp.html" target="_top" xlink:title="Définition de la classe Particule représentant une particule physique.">
<polygon fill="white" stroke="#666666" points="111,-74 31,-74 31,-55 111,-55 111,-74"/>
<text text-anchor="middle" x="71" y="-62" font-family="Helvetica,sans-Serif" font-size="10.00">Particule.hpp</text>
</a>
</g>
</g>
<!-- Node1&#45;&gt;Node3 -->
<g id="edge2_Node000001_Node000003" class="edge">
<title>Node1&#45;&gt;Node3</title>
<g id="a_edge2_Node000001_Node000003"><a xlink:title=" ">
<path fill="none" stroke="#63b8ff" d="M105.23,-109.75C99.44,-102.26 90.94,-91.28 83.86,-82.13"/>
<polygon fill="#63b8ff" stroke="#63b8ff" points="86.53,-79.86 77.64,-74.09 80.99,-84.14 86.53,-79.86"/>
</a>
</g>
</g>
<!-- Node4 -->
<g id="Node000004" class="node">
<title>Node4</title>
<g id="a_Node000004"><a xlink:title=" ">
<polygon fill="#e0e0e0" stroke="#999999" points="176.5,-74 129.5,-74 129.5,-55 176.5,-55 176.5,-74"/>
<text text-anchor="middle" x="153" y="-62" font-family="Helvetica,sans-Serif" font-size="10.00">vector</text>
</a>
</g>
</g>
<!-- Node1&#45;&gt;Node4 -->
<g id="edge4_Node000001_Node000004" class="edge">
<title>Node1&#45;&gt;Node4</title>
<g id="a_edge4_Node000001_Node000004"><a xlink:title=" ">
<path fill="none" stroke="#63b8ff" d="M118.77,-109.75C124.56,-102.26 133.06,-91.28 140.14,-82.13"/>
<polygon fill="#63b8ff" stroke="#63b8ff" points="143.01,-84.14 146.36,-74.09 137.47,-79.86 143.01,-84.14"/>
</a>
</g>
</g>
<!-- Node5 -->
<g id="Node000005" class="node">
<title>Node5</title>
<g id="a_Node000005"><a xlink:title=" ">
<polygon fill="#e0e0e0" stroke="#999999" points="237,-74 195,-74 195,-55 237,-55 237,-74"/>
<text text-anchor="middle" x="216" y="-62" font-family="Helvetica,sans-Serif" font-size="10.00">array</text>
</a>
</g>
</g>
<!-- Node1&#45;&gt;Node5 -->
<g id="edge5_Node000001_Node000005" class="edge">
<title>Node1&#45;&gt;Node5</title>
<g id="a_edge5_Node000001_Node000005"><a xlink:title=" ">
<path fill="none" stroke="#63b8ff" d="M128.71,-109.98C145.21,-101.57 170.7,-88.59 189.88,-78.81"/>
<polygon fill="#63b8ff" stroke="#63b8ff" points="191.67,-81.83 198.99,-74.17 188.49,-75.59 191.67,-81.83"/>
</a>
</g>
</g>
<!-- Node3&#45;&gt;Node2 -->
<g id="edge3_Node000003_Node000002" class="edge">
<title>Node3&#45;&gt;Node2</title>
<g id="a_edge3_Node000003_Node000002"><a xlink:title=" ">
<path fill="none" stroke="#63b8ff" d="M65.39,-54.75C60.68,-47.42 53.83,-36.73 48.03,-27.7"/>
<polygon fill="#63b8ff" stroke="#63b8ff" points="50.86,-25.62 42.51,-19.09 44.96,-29.4 50.86,-25.62"/>
</a>
</g>
</g>
</g>
</svg>
